<svg xmlns="http://www.w3.org/2000/svg" x="0px" y="0px"
width="96" height="96"
viewBox="0 0 172 172"
style=" fill:#000000;"><g fill="none" fill-rule="nonzero" stroke="none" stroke-width="1" stroke-linecap="butt" stroke-linejoin="miter" stroke-miterlimit="10" stroke-dasharray="" stroke-dashoffset="0" font-family="none" font-weight="none" font-size="none" text-anchor="none" style="mix-blend-mode: normal"><path d="M0,172v-172h172v172z" fill="none"></path><g fill="#3d1e1c"><path d="M79.77466,21.5c-29.48725,0 -58.27466,1.89318 -58.27466,24.58643c0,7.04125 2.8097,12.62016 8.34595,16.58691c0.6235,0.44613 0.98682,1.27959 0.98682,2.22559v71.35522c0,7.85825 6.60739,14.24585 14.71826,14.24585h11.2749h63.4082h5.70044c7.61638,0 13.81543,-6.3876 13.81543,-14.24585v-71.35522c0,-1.0105 0.34433,-1.93743 0.88183,-2.36206c5.45025,-4.3215 8.33545,-10.01657 8.33545,-16.45044c0,-23.78437 -35.77945,-24.55443 -56.74195,-24.57593zM90.09424,32.25c33.27662,0 48.12305,4.26355 48.12305,13.83643c0,3.16587 -1.35433,5.71463 -4.26221,8.02051c-3.096,2.46175 -4.95508,6.49737 -4.95508,10.79199v71.35522c0,1.92425 -1.37231,3.49585 -3.06543,3.49585h-69.11915c-1.69312,0 -3.06543,-1.5716 -3.06543,-3.49585v-71.35522c0,-4.28925 -1.84833,-8.31949 -4.95508,-10.79199c-2.90788,-2.3005 -4.26221,-4.85463 -4.26221,-8.02051c0,-9.83087 13.19865,-13.83643 45.56153,-13.83643zM69.875,80.625c-2.96853,0 -5.375,2.40647 -5.375,5.375c0,2.96853 2.40647,5.375 5.375,5.375c2.96853,0 5.375,-2.40647 5.375,-5.375c0,-2.96853 -2.40647,-5.375 -5.375,-5.375zM112.875,80.625c-2.96853,0 -5.375,2.40647 -5.375,5.375c0,2.96853 2.40647,5.375 5.375,5.375c2.96853,0 5.375,-2.40647 5.375,-5.375c0,-2.96853 -2.40647,-5.375 -5.375,-5.375zM80.625,96.75c0,5.93937 4.81063,10.75 10.75,10.75c5.93937,0 10.75,-4.81063 10.75,-10.75z"></path></g></g></svg>